<?xml version="1.0" encoding="UTF-8"?>
<svg version="1.1" xmlns="http://www.w3.org/2000/svg" width="500" height="500">
<path d="M0 0 C165 0 330 0 500 0 C500 165 500 330 500 500 C335 500 170 500 0 500 C0 335 0 170 0 0 Z " fill="#FEFEFE" transform="translate(0,0)"/>
<path d="M0 0 C1.34070557 0.00845947 1.34070557 0.00845947 2.70849609 0.01708984 C14.2702078 0.2302965 23.84550849 3.4490776 32.515625 11.38671875 C40.05898369 19.39106047 42.87243305 26.35971421 42.72094727 37.35961914 C42.27702336 47.36262599 38.57563943 54.58161545 31.25 61.3125 C19.50435459 70.90440702 6.97369409 72.70102149 -7.75 71.3125 C-11.26386507 70.6230182 -14.42992535 69.62287711 -17.75 68.3125 C-21.09972633 67.18958038 -21.42725594 67.15442128 -24.8125 68.8125 C-25.781875 69.3075 -26.75125 69.8025 -27.75 70.3125 C-28.74 69.9825 -29.73 69.6525 -30.75 69.3125 C-30.399375 68.755625 -30.04875 68.19875 -29.6875 67.625 C-28.44188121 64.55247365 -28.58886936 63.43303861 -29.75 60.3125 C-30.63824591 59.26684342 -31.55937858 58.24880419 -32.5 57.25 C-37.53077392 51.67240282 -40.98845572 44.20195244 -41.1875 36.625 C-41.08621776 35.18367578 -40.94044783 33.74477205 -40.75 32.3125 C-40.66621094 31.57386719 -40.58242187 30.83523437 -40.49609375 30.07421875 C-38.80134963 19.74519935 -31.8957697 12.4114549 -23.75 6.3125 C-21.16268341 4.72429291 -18.57620116 3.41674107 -15.75 2.3125 C-14.88246094 1.95542969 -14.01492187 1.59835938 -13.12109375 1.23046875 C-8.6945098 0.02508378 -4.56786991 -0.02981082 0 0 Z " fill="#FAFAFA" transform="translate(139.75,197.6875)"/>
<path d="M0 0 C1.34070557 0.00845947 1.34070557 0.00845947 2.70849609 0.01708984 C14.2702078 0.2302965 23.84550849 3.4490776 32.515625 11.38671875 C40.05898369 19.39106047 42.87243305 26.35971421 42.72094727 37.35961914 C42.27702336 47.36262599 38.57563943 54.58161545 31.25 61.3125 C19.50435459 70.90440702 6.97369409 72.70102149 -7.75 71.3125 C-11.26386507 70.6230182 -14.42992535 69.62287711 -17.75 68.3125 C-21.09972633 67.18958038 -21.42725594 67.15442128 -24.8125 68.8125 C-25.781875 69.3075 -26.75125 69.8025 -27.75 70.3125 C-28.74 69.9825 -29.73 69.6525 -30.75 69.3125 C-30.399375 68.755625 -30.04875 68.19875 -29.6875 67.625 C-28.44188121 64.55247365 -28.58886936 63.43303861 -29.75 60.3125 C-30.63824591 59.26684342 -31.55937858 58.24880419 -32.5 57.25 C-37.53077392 51.67240282 -40.98845572 44.20195244 -41.1875 36.625 C-41.08621776 35.18367578 -40.94044783 33.74477205 -40.75 32.3125 C-40.66621094 31.57386719 -40.58242187 30.83523437 -40.49609375 30.07421875 C-38.80134963 19.74519935 -31.8957697 12.4114549 -23.75 6.3125 C-21.16268341 4.72429291 -18.57620116 3.41674107 -15.75 2.3125 C-14.88246094 1.95542969 -14.01492187 1.59835938 -13.12109375 1.23046875 C-8.6945098 0.02508378 -4.56786991 -0.02981082 0 0 Z M-29 23.375 C-32.20248884 28.75060626 -32.38322039 34.16498535 -31.75 40.3125 C-30.09541088 46.52620154 -27.91244027 51.29967193 -22.75 55.3125 C-19.1632842 56.08241341 -15.63091023 56.0608741 -11.97265625 56.046875 C-10.92855087 56.05640198 -9.8844455 56.06592896 -8.80870056 56.07574463 C-6.60402714 56.08789267 -4.39924942 56.08708616 -2.19458008 56.07421875 C1.17356805 56.06254827 4.53669712 56.11476783 7.90429688 56.171875 C10.04947565 56.17576045 12.19466521 56.17588539 14.33984375 56.171875 C15.84477638 56.20254059 15.84477638 56.20254059 17.38011169 56.23382568 C22.64326943 56.18687156 22.64326943 56.18687156 27.19314575 53.83044434 C32.5722471 47.74867352 34.9389315 41.01097934 34.6640625 32.90234375 C33.60446903 26.2748865 30.37667711 20.62441112 25.159729 16.38832092 C21.37447206 14.2559458 17.23789117 14.60265165 12.99609375 14.6484375 C12.01761978 14.64365387 11.03914581 14.63887024 10.03102112 14.63394165 C7.96931341 14.63054935 5.90755142 14.63970473 3.84594727 14.66064453 C0.69360406 14.6874481 -2.45518801 14.66085872 -5.60742188 14.62890625 C-7.61459117 14.6322099 -9.62175827 14.63861521 -11.62890625 14.6484375 C-12.56859756 14.63831635 -13.50828888 14.62819519 -14.47645569 14.61776733 C-22.10419745 14.75419572 -24.51605067 17.27184674 -29 23.375 Z " fill="#303030" transform="translate(139.75,197.6875)"/>
<path d="M0 0 C2.64 0 5.28 0 8 0 C8 12.54 8 25.08 8 38 C5.36 38 2.72 38 0 38 C0 37.34 0 36.68 0 36 C-0.99 36.495 -0.99 36.495 -2 37 C-6.78963439 38.5965448 -11.01200024 38.76809082 -15.75 36.9375 C-19.42378015 33.77396709 -21.48559409 30.48849357 -22.45703125 25.7890625 C-22.79481827 21.18573238 -22.10626311 18.56582451 -19.125 15 C-16.64773805 12.41503101 -15.14960176 11.06031861 -11.46875 10.8671875 C-10.4890625 10.86976563 -9.509375 10.87234375 -8.5 10.875 C-7.5203125 10.87242187 -6.540625 10.86984375 -5.53125 10.8671875 C-3 11 -3 11 -1 12 C-0.67 8.04 -0.34 4.08 0 0 Z " fill="#0A0A0A" transform="translate(410,208)"/>
<path d="M0 0 C3.45954328 3.12084006 5.48593152 6.34536386 7.671875 10.4453125 C7.99915588 11.05639862 8.32643677 11.66748474 8.66363525 12.29708862 C9.34935738 13.5811506 10.03157609 14.86708905 10.71044922 16.15478516 C11.75268702 18.13009259 12.8070583 20.09854771 13.86328125 22.06640625 C19 31.7132227 19 31.7132227 19 34 C16.03 34 13.06 34 10 34 C9.34 32.35 8.68 30.7 8 29 C5.70759993 29.05985379 3.41593794 29.14859027 1.125 29.25 C-0.15117187 29.29640625 -1.42734375 29.3428125 -2.7421875 29.390625 C-3.81726563 29.59171875 -4.89234375 29.7928125 -6 30 C-6.66 31.32 -7.32 32.64 -8 34 C-11.3 34 -14.6 34 -18 34 C-12.36714524 22.45107433 -6.31887723 11.18752034 0 0 Z " fill="#060606" transform="translate(221,212)"/>
<path d="M0 0 C3.49029792 1.97277708 6.19844633 4.39689265 8 8 C8 10.64 8 13.28 8 16 C1.73 16 -4.54 16 -11 16 C-8.43135218 19.27457314 -8.43135218 19.27457314 -5.66015625 19.00390625 C-4.80292969 18.85824219 -3.94570313 18.71257812 -3.0625 18.5625 C0.73374617 17.92692937 2.68408082 17.96120978 6 20 C5.0195412 22.58484592 4.06077857 23.94843031 1.9375 25.75 C-3.01838592 27.85888763 -7.78041057 27.83851156 -12.8125 25.9375 C-17.11314281 22.12835922 -19.20886724 18.17101856 -19.625 12.5 C-19.43739749 7.93500554 -17.60049017 5.53964192 -14.5078125 2.3125 C-10.45334976 -1.21677327 -5.06636324 -0.75960604 0 0 Z " fill="#0A0A0A" transform="translate(348,219)"/>
<path d="M0 0 C2.64 0 5.28 0 8 0 C8.33 0.66 8.66 1.32 9 2 C9.33 1.67 9.66 1.34 10 1 C15.10495843 0.47751264 19.54136917 0.16649667 24.0625 2.75 C27.09627317 6.27309142 28.25826486 8.88839999 28.1953125 13.546875 C28.18886719 14.39121094 28.18242187 15.23554688 28.17578125 16.10546875 C28.15902344 16.97816406 28.14226562 17.85085937 28.125 18.75 C28.11597656 19.63816406 28.10695313 20.52632812 28.09765625 21.44140625 C28.07414577 23.62788058 28.04128499 25.81380094 28 28 C25.69 28 23.38 28 21 28 C20.95101563 26.79601562 20.90203125 25.59203125 20.8515625 24.3515625 C20.77653657 22.77601802 20.70098867 21.20049834 20.625 19.625 C20.5940625 18.8309375 20.563125 18.036875 20.53125 17.21875 C20.48183579 12.63332625 20.48183579 12.63332625 18 9 C14.5 8.66666667 14.5 8.66666667 11 9 C7.97906785 12.02093215 8.53323166 15.56372072 8.375 19.625 C8.31699219 20.82769531 8.31699219 20.82769531 8.2578125 22.0546875 C8.16346069 24.03607556 8.08063785 26.01800645 8 28 C5.36 28 2.72 28 0 28 C0 18.76 0 9.52 0 0 Z " fill="#0C0C0C" transform="translate(358,218)"/>
<path d="M0 0 C7.26 0 14.52 0 22 0 C22 2.64 22 5.28 22 8 C17.71 8 13.42 8 9 8 C9 9.98 9 11.96 9 14 C11.97 14 14.94 14 18 14 C18 16.31 18 18.62 18 21 C14.7 21 11.4 21 8 21 C8 25.62 8 30.24 8 35 C5.36 35 2.72 35 0 35 C0 23.45 0 11.9 0 0 Z " fill="#0A0A0A" transform="translate(275,211)"/>
<path d="M0 0 C0 2.64 0 5.28 0 8 C-0.928125 8.2475 -1.85625 8.495 -2.8125 8.75 C-6.35781893 10.14032115 -7.16281306 10.75287889 -9 14 C-9.57767496 17.49858868 -9.57767496 17.49858868 -9.6875 21.25 C-9.75324219 22.51328125 -9.81898438 23.7765625 -9.88671875 25.078125 C-9.92410156 26.04234375 -9.96148437 27.0065625 -10 28 C-12.31 28 -14.62 28 -17 28 C-17 19.09 -17 10.18 -17 1 C-14.69 1 -12.38 1 -10 1 C-9.67 1.66 -9.34 2.32 -9 3 C-8.62875 2.505 -8.2575 2.01 -7.875 1.5 C-5.25305607 -0.59755514 -3.26157528 -0.21743835 0 0 Z " fill="#050505" transform="translate(317,218)"/>
<path d="M0 0 C2.64 0 5.28 0 8 0 C8 9.24 8 18.48 8 28 C5.36 28 2.72 28 0 28 C0 18.76 0 9.52 0 0 Z " fill="#141414" transform="translate(319,218)"/>
<path d="M0 0 C2.31 0 4.62 0 7 0 C7 8.91 7 17.82 7 27 C4.69 27 2.38 27 0 27 C0 18.09 0 9.18 0 0 Z " fill="#000000" transform="translate(243,219)"/>
<path d="M0 0 C4.46742733 1.36504724 6.76027132 2.85235429 9 7 C9.78638027 12.66352657 9.74156019 17.40701884 7.3125 22.625 C4.93483532 25.06692589 3.25987205 26.09447999 0 27 C0.24363281 26.02546875 0.24363281 26.02546875 0.4921875 25.03125 C1.14061143 21.16065791 1.145293 17.41654874 1.125 13.5 C1.12886719 12.75363281 1.13273438 12.00726563 1.13671875 11.23828125 C1.12985206 7.35860414 0.94729776 3.78919102 0 0 Z " fill="#393939" transform="translate(182,220)"/>
<path d="M0 0 C6.27 0 12.54 0 19 0 C19 2.64 19 5.28 19 8 C12.73 8 6.46 8 0 8 C0 5.36 0 2.72 0 0 Z " fill="#191919" transform="translate(253,226)"/>
<path d="M0 0 C0.33 0.66 0.66 1.32 1 2 C0.690625 2.78375 0.38125 3.5675 0.0625 4.375 C-2.24606354 12.2512756 -1.38544743 20.24729584 1 28 C-2.59958909 27.29238847 -4.69294926 26.1100061 -7.00390625 23.13671875 C-9.23786642 18.34465517 -8.91892191 13.10160096 -8 8 C-6.04309644 4.40143874 -3.67151449 1.83575725 0 0 Z " fill="#343434" transform="translate(99,219)"/>
<path d="M0 0 C1.9375 1.0625 1.9375 1.0625 3 3 C3.4375 6.5 3.4375 6.5 3 10 C1.4375 12 1.4375 12 -1 13 C-4.625 12.875 -4.625 12.875 -8 12 C-10.31282587 8.53076119 -10.42478586 7.07794425 -10 3 C-7.72054654 -1.02256493 -4.21158603 -0.45124136 0 0 Z " fill="#F7F7F7" transform="translate(405,226)"/>
<path d="M0 0 C3.4375 0.75 3.4375 0.75 5.4375 2.75 C5.4375 4.07 5.4375 5.39 5.4375 6.75 C1.1475 6.75 -3.1425 6.75 -7.5625 6.75 C-7.2325 5.1 -6.9025 3.45 -6.5625 1.75 C-3.5625 -0.25 -3.5625 -0.25 0 0 Z " fill="#353535" transform="translate(157.5625,226.25)"/>
<path d="M0 0 C3.4375 0.75 3.4375 0.75 5.4375 2.75 C5.4375 4.07 5.4375 5.39 5.4375 6.75 C1.1475 6.75 -3.1425 6.75 -7.5625 6.75 C-7.2325 5.1 -6.9025 3.45 -6.5625 1.75 C-3.5625 -0.25 -3.5625 -0.25 0 0 Z " fill="#333333" transform="translate(126.5625,226.25)"/>
<path d="M0 0 C0.66 0.66 1.32 1.32 2 2 C1.7578125 3.84765625 1.7578125 3.84765625 1.125 6.0625 C-0.79461285 13.84067155 -0.22321985 20.35768177 2 28 C1.01 28 0.02 28 -1 28 C-3.96957573 18.34887889 -4.27390922 9.26013665 0 0 Z " fill="#E0E0E0" transform="translate(100,219)"/>
<path d="M0 0 C0.99 0 1.98 0 3 0 C3 4.95 3 9.9 3 15 C1.68 14.34 0.36 13.68 -1 13 C-1.02686553 11.02090602 -1.04633375 9.04171029 -1.0625 7.0625 C-1.07410156 5.96035156 -1.08570313 4.85820312 -1.09765625 3.72265625 C-1 1 -1 1 0 0 Z " fill="#373737" transform="translate(187,207)"/>
<path d="M0 0 C2.65112038 3.94511961 2.29626525 7.99380619 2.25 12.5625 C2.25773438 13.33013672 2.26546875 14.09777344 2.2734375 14.88867188 C2.25989467 18.77207821 2.19983549 20.70024677 0 24 C-0.79967527 21.18009247 -1.12822838 18.67013128 -1.1328125 15.7421875 C-1.13410156 14.95199219 -1.13539063 14.16179687 -1.13671875 13.34765625 C-1.13091797 12.12369141 -1.13091797 12.12369141 -1.125 10.875 C-1.12886719 10.05128906 -1.13273438 9.22757813 -1.13671875 8.37890625 C-1.12669335 2.2533867 -1.12669335 2.2533867 0 0 Z " fill="#D6D6D6" transform="translate(182,221)"/>
<path d="M0 0 C4.37855495 -0.46913089 6.29584707 -0.46943529 10 2 C10 2.66 10 3.32 10 4 C5.71 4 1.42 4 -3 4 C-2.01 2.68 -1.02 1.36 0 0 Z " fill="#D7D7D7" transform="translate(339,226)"/>
<path d="M0 0 C2.31 0 4.62 0 7 0 C7 1.98 7 3.96 7 6 C4.69 6 2.38 6 0 6 C0 4.02 0 2.04 0 0 Z " fill="#070707" transform="translate(319,209)"/>
<path d="M0 0 C2.31 0 4.62 0 7 0 C7 1.98 7 3.96 7 6 C4.69 6 2.38 6 0 6 C0 4.02 0 2.04 0 0 Z " fill="#020202" transform="translate(243,209)"/>
<path d="M0 0 C0.99 0 1.98 0 3 0 C3.08078641 2.12438339 3.13909141 4.2496323 3.1875 6.375 C3.22230469 7.55835938 3.25710937 8.74171875 3.29296875 9.9609375 C3.19628906 10.96382812 3.09960938 11.96671875 3 13 C2.01 13.66 1.02 14.32 0 15 C0 10.05 0 5.1 0 0 Z " fill="#2F2F2F" transform="translate(92,207)"/>
<path d="M0 0 C3.3 0 6.6 0 10 0 C10 0.99 10 1.98 10 3 C3.375 4.25 3.375 4.25 0 2 C0 1.34 0 0.68 0 0 Z " fill="#F1F1F1" transform="translate(337,235)"/>
<path d="M0 0 C0.33 0 0.66 0 1 0 C1.33 4.29 1.66 8.58 2 13 C3.32 12.67 4.64 12.34 6 12 C4.68 13.32 3.36 14.64 2 16 C1.34 15.67 0.68 15.34 0 15 C0 10.05 0 5.1 0 0 Z " fill="#E0E0E0" transform="translate(91,208)"/>
<path d="M0 0 C2.97 0 5.94 0 9 0 C8.34 1.32 7.68 2.64 7 4 C4.03 3.505 4.03 3.505 1 3 C0.67 2.01 0.34 1.02 0 0 Z " fill="#535353" transform="translate(136,237)"/>
<path d="M0 0 C1.37562854 1.28965176 2.70766393 2.62689293 4 4 C4 4.66 4 5.32 4 6 C2.02 6 0.04 6 -2 6 C-1.34 4.02 -0.68 2.04 0 0 Z " fill="#CFCFCF" transform="translate(221,229)"/>
<path d="M0 0 C0.66 0.66 1.32 1.32 2 2 C1.7578125 4.1640625 1.7578125 4.1640625 1.125 6.625 C0.92132813 7.44226563 0.71765625 8.25953125 0.5078125 9.1015625 C0.34023437 9.72804687 0.17265625 10.35453125 0 11 C-2.0390625 7.328125 -2.0390625 7.328125 -1.6875 4.375 C-1 2 -1 2 0 0 Z " fill="#D6D6D6" transform="translate(100,219)"/>
</svg>
